HIERARCHY
ROOT SpineBase
{
  OFFSET 0.000000 0.000000 0.000000
  CHANNELS 6 Xposition Yposition Zposition Zrotation Xrotation Yrotation
  JOINT SpineMid
  {
    OFFSET -0.000000 33.642556 0.000000
    CHANNELS 3 Zrotation Xrotation Yrotation
    JOINT SpineShoulder
    {
      OFFSET 0.066837 24.913272 -0.969151
      CHANNELS 3 Zrotation Xrotation Yrotation
      JOINT Neck
      {
        OFFSET 0.034975 8.204428 -0.679293
        CHANNELS 3 Zrotation Xrotation Yrotation
        JOINT Head
        {
          OFFSET 0.304503 12.590653 6.981834
          CHANNELS 3 Zrotation Xrotation Yrotation
          End Site
          {
            OFFSET 0 0 0
          }
        }
      }
      JOINT ShoulderLeft
      {
        OFFSET 0.356035 -5.940800 -14.250822
        CHANNELS 3 Zrotation Xrotation Yrotation
        JOINT ElbowLeft
        {
          OFFSET 7.452100 -29.247718 -5.959329
          CHANNELS 3 Zrotation Xrotation Yrotation
          JOINT WristLeft
          {
            OFFSET 10.401388 -20.483266 -0.306824
            CHANNELS 3 Zrotation Xrotation Yrotation
            JOINT HandLeft
            {
              OFFSET 0.998495 -9.231173 3.682985
              CHANNELS 3 Zrotation Xrotation Yrotation
              JOINT HandTipLeft
              {
                OFFSET 3.008683 -7.143162 2.050578
                CHANNELS 3 Zrotation Xrotation Yrotation
                End Site
                {
                  OFFSET 0 0 0
                }
              }
              JOINT ThumbLeft
              {
                OFFSET -4.315962 -0.568415 3.392529
                CHANNELS 3 Zrotation Xrotation Yrotation
                End Site
                {
                  OFFSET 0 0 0
                }
              }
            }
          }
        }
      }
      JOINT ShoulderRight
      {
        OFFSET 8.054844 -2.751596 10.172712
        CHANNELS 3 Zrotation Xrotation Yrotation
        JOINT ElbowRight
        {
          OFFSET -15.209692 -25.825927 3.174827
          CHANNELS 3 Zrotation Xrotation Yrotation
          JOINT WristRight
          {
            OFFSET -7.201602 -14.073401 -26.835172
            CHANNELS 3 Zrotation Xrotation Yrotation
            JOINT HandRight
            {
              OFFSET 1.597780 -8.280718 4.915531
              CHANNELS 3 Zrotation Xrotation Yrotation
              JOINT HandTipRight
              {
                OFFSET -0.566299 0.178482 -2.320373
                CHANNELS 3 Zrotation Xrotation Yrotation
                End Site
                {
                  OFFSET 0 0 0
                }
              }
              JOINT ThumbRight
              {
                OFFSET -1.328940 0.172275 -3.550875
                CHANNELS 3 Zrotation Xrotation Yrotation
                End Site
                {
                  OFFSET 0 0 0
                }
              }
            }
          }
        }
      }
    }
  }
  JOINT HipLeft
  {
    OFFSET -1.829875 0.804264 -10.694041
    CHANNELS 3 Zrotation Xrotation Yrotation
    JOINT KneeLeft
    {
      OFFSET 8.495350 -35.071151 5.395014
      CHANNELS 3 Zrotation Xrotation Yrotation
      JOINT AnkleLeft
      {
        OFFSET -2.655761 -35.936069 5.806015
        CHANNELS 3 Zrotation Xrotation Yrotation
        JOINT FootLeft
        {
          OFFSET 4.311641 -6.563489 -1.026274
          CHANNELS 3 Zrotation Xrotation Yrotation
          End Site
          {
            OFFSET 0 0 0
          }
        }
      }
    }
  }
  JOINT HipRight
  {
    OFFSET 1.913808 0.658461 3.106915
    CHANNELS 3 Zrotation Xrotation Yrotation
    JOINT KneeRight
    {
      OFFSET 17.112386 -32.811208 9.085957
      CHANNELS 3 Zrotation Xrotation Yrotation
      JOINT AnkleRight
      {
        OFFSET -9.652190 -41.244095 7.345209
        CHANNELS 3 Zrotation Xrotation Yrotation
        JOINT FootRight
        {
          OFFSET 0.225158 -7.554050 2.478661
          CHANNELS 3 Zrotation Xrotation Yrotation
          End Site
          {
            OFFSET 0 0 0
          }
        }
      }
    }
  }
}
MOTION
Frames: 11
Frame Time: 0.033333
-2.172384 80.370818 304.226300 8.615027 -2.793142 -47.447901 -1.817143 -0.934520 47.902931 1.104859 0.021762 0.366619 -24.757077 -17.987573 7.815460 0.000000 0.000000 0.000000 -9.611592 6.458750 1.099154 9.753289 2.703985 2.148335 10.082953 6.185939 5.044689 -7.535523 -12.902962 -4.926462 0.000000 0.000000 0.000000 0.000000 0.000000 0.000000 1.285671 -1.021688 2.468807 27.947522 -10.638353 -88.412980 -131.367070 7.335470 112.666410 -114.304484 -27.118924 -145.255690 0.000000 0.000000 0.000000 0.000000 0.000000 0.000000 -14.007132 1.226138 49.229719 3.910203 -8.858624 -0.734138 14.502457 31.879549 10.578557 0.000000 0.000000 0.000000 -20.124416 -7.816353 46.506476 2.272324 -11.973764 -1.432566 57.127720 73.041399 -26.774177 0.000000 0.000000 0.000000
-2.111272 80.162859 305.874754 10.247605 -3.274965 -43.118461 -1.792841 -0.606234 43.719860 1.103383 0.094012 0.436648 -26.617850 -25.044787 7.096376 0.000000 0.000000 0.000000 -12.568069 7.962754 1.664986 12.356569 3.490780 2.719019 11.884617 7.004058 5.792013 -8.297649 -11.688585 -4.367619 0.000000 0.000000 0.000000 0.000000 0.000000 0.000000 9.341199 -1.993256 4.709558 21.753675 -2.861208 -92.723917 -136.459111 28.091487 -12.315271 125.345224 -15.962848 71.174308 0.000000 0.000000 0.000000 0.000000 0.000000 0.000000 -16.561460 2.450693 45.278952 5.396406 -9.503365 -0.607446 10.745899 37.855586 14.963070 0.000000 0.000000 0.000000 -26.589188 -7.360122 42.203726 5.440926 -16.006897 -1.665298 70.210872 73.697306 -37.312088 0.000000 0.000000 0.000000
-2.831181 80.283321 307.756240 11.251238 -3.798195 -37.689587 -1.519862 -0.073042 38.415410 0.777561 0.044574 0.483313 -26.395420 -31.755888 5.929761 0.000000 0.000000 0.000000 -15.190189 8.983849 2.266765 14.441139 4.715595 3.230750 14.153026 7.198574 6.589149 -8.768668 -10.018309 -3.830703 0.000000 0.000000 0.000000 0.000000 0.000000 0.000000 18.818410 -2.342866 7.045886 13.760431 7.471900 -91.993040 -117.014790 15.770267 -51.415555 98.636958 14.030703 53.447904 0.000000 0.000000 0.000000 0.000000 0.000000 0.000000 -18.224985 6.038333 40.891385 5.717625 -10.834167 -0.851731 6.312625 43.517519 20.062921 0.000000 0.000000 0.000000 -33.882512 -4.766447 37.725881 11.374297 -20.697261 -1.154926 68.122422 72.984679 -37.284228 0.000000 0.000000 0.000000
-3.686765 80.191902 309.128726 11.901937 -3.737574 -31.419316 -0.975336 0.098284 32.215078 0.493442 -0.008869 0.520966 -24.616143 -37.285922 4.507780 0.000000 0.000000 0.000000 -17.451550 9.086057 2.667758 15.103274 6.087249 3.566783 17.076682 7.567442 7.368219 -9.566278 -8.992752 -3.758598 0.000000 0.000000 0.000000 0.000000 0.000000 0.000000 27.601812 -2.264147 8.990632 2.317327 23.370627 -80.342104 -102.358784 18.938767 -47.983197 87.865411 16.447681 53.553162 0.000000 0.000000 0.000000 0.000000 0.000000 0.000000 -18.334037 9.313104 35.421961 6.361855 -11.190592 -0.915746 2.619439 47.721647 24.380171 0.000000 0.000000 0.000000 -40.450580 -1.759484 32.181936 19.906296 -24.797154 1.485920 54.661557 71.761119 -30.438866 0.000000 0.000000 0.000000
-5.264429 80.148530 310.814554 11.904753 -3.981575 -27.093367 -0.250891 0.520256 27.922782 0.115650 -0.090339 0.544343 -22.980987 -41.512820 3.614477 0.000000 0.000000 0.000000 -19.770998 7.949848 2.857758 15.540868 8.356456 3.764568 19.989250 8.165748 7.977150 -10.588711 -7.569580 -3.793441 0.000000 0.000000 0.000000 0.000000 0.000000 0.000000 34.485740 -1.733736 10.118774 -6.158652 32.982244 -74.393953 -108.432256 44.734892 -1.433252 107.542080 -18.548304 71.749065 0.000000 0.000000 0.000000 0.000000 0.000000 0.000000 -17.340818 13.074348 32.039543 5.826240 -11.818555 -1.314357 -4.102213 48.378692 28.940349 0.000000 0.000000 0.000000 -46.078411 2.011709 29.871718 29.317504 -27.476645 4.720997 47.785066 63.877994 -22.685310 0.000000 0.000000 0.000000
-6.380808 80.159611 312.370864 12.665461 -4.277896 -23.308058 -0.468965 0.512287 24.215252 0.139601 -0.081554 0.567862 -21.642451 -44.038415 2.961196 0.000000 0.000000 0.000000 -21.943465 5.806859 2.608125 14.665783 10.881528 3.906311 21.435722 7.581432 7.751072 -11.247626 -4.337724 -3.483114 0.000000 0.000000 0.000000 0.000000 0.000000 0.000000 38.175976 -1.102753 10.310279 -11.427727 40.476595 -69.812574 -108.195301 43.243722 50.887059 135.842501 -61.661911 101.307708 0.000000 0.000000 0.000000 0.000000 0.000000 0.000000 -17.348044 15.948887 28.966602 6.051301 -12.413607 -1.466576 -10.701560 46.671453 31.931906 0.000000 0.000000 0.000000 -51.691048 4.838943 27.482671 37.478911 -28.855463 8.067779 40.192026 60.922085 -18.579018 0.000000 0.000000 0.000000
-7.705715 80.209441 313.639672 12.743446 -4.602478 -21.245772 -0.579317 0.546006 22.189723 0.324629 -0.119424 0.579542 -20.361602 -44.498479 2.663704 0.000000 0.000000 0.000000 -23.477135 3.285578 2.114771 12.583063 13.113766 4.058501 22.335311 6.783743 7.033806 -12.705124 -0.501772 -3.293487 0.000000 0.000000 0.000000 0.000000 0.000000 0.000000 38.683076 -0.419793 9.557200 -9.310217 41.895998 -72.965164 -101.519382 32.861616 107.550636 -111.131110 -43.423503 -146.528209 0.000000 0.000000 0.000000 0.000000 0.000000 0.000000 -16.060929 18.816440 27.541848 4.705140 -13.278747 -2.060238 -13.383628 46.257353 33.364054 0.000000 0.000000 0.000000 -54.314856 6.984814 26.919006 42.298700 -29.367827 10.187499 36.127745 60.562114 -17.537883 0.000000 0.000000 0.000000
-9.489838 79.978005 315.035761 12.388608 -4.754513 -19.756462 -0.370050 0.495709 20.704287 0.246376 -0.178290 0.573146 -19.611403 -45.430627 2.635131 0.000000 0.000000 0.000000 -24.611660 0.450829 1.467553 9.563156 14.698864 4.162388 23.893036 6.873833 6.352319 -15.340497 1.785262 -3.769038 0.000000 0.000000 0.000000 0.000000 0.000000 0.000000 35.362501 0.439282 7.722873 -6.212979 31.300993 -76.189765 -73.514476 32.577075 137.924876 -85.025396 1.929008 -112.318880 0.000000 0.000000 0.000000 0.000000 0.000000 0.000000 -14.198245 21.625552 26.581208 2.492761 -14.615019 -2.981692 -14.900135 48.024609 35.826364 0.000000 0.000000 0.000000 -57.323757 10.492291 29.170187 47.110495 -33.788259 12.700756 28.412667 60.256630 -15.659642 0.000000 0.000000 0.000000
-11.272391 79.675343 316.046697 11.651139 -4.713986 -20.066338 -0.074536 0.416238 20.970420 0.125376 -0.223426 0.550085 -19.257800 -45.281890 2.804433 0.000000 0.000000 0.000000 -25.248460 -2.622698 0.630109 6.030516 15.433949 4.158990 23.798881 6.886286 4.949917 -16.924376 3.750800 -3.394224 0.000000 0.000000 0.000000 0.000000 0.000000 0.000000 36.101662 0.882634 7.235555 -12.469865 21.552779 -71.020028 -62.117717 45.599891 149.069424 -83.321260 20.702554 -97.406346 0.000000 0.000000 0.000000 0.000000 0.000000 0.000000 -12.364745 23.190959 27.125016 -0.502960 -15.630787 -4.172249 -13.695925 45.798206 34.178463 0.000000 0.000000 0.000000 -61.505215 12.944380 33.664284 54.491483 -40.310826 17.559328 34.848151 63.857127 -23.242597 0.000000 0.000000 0.000000
-13.558615 79.343240 317.127335 10.536509 -4.597324 -19.866946 0.276811 0.278762 20.696564 -0.025852 -0.233190 0.505792 -17.946977 -45.162442 2.829116 0.000000 0.000000 0.000000 -26.050911 -5.500001 -0.080210 3.135873 15.671263 4.004335 22.771416 6.736609 3.295156 -17.182059 3.404830 -3.121035 0.000000 0.000000 0.000000 0.000000 0.000000 0.000000 37.330611 1.220768 6.915782 -21.009949 5.978610 -63.390946 -67.293677 62.458463 158.675715 -91.326027 25.288285 -85.971551 0.000000 0.000000 0.000000 0.000000 0.000000 0.000000 -10.677879 24.685676 27.130748 -3.312623 -16.995524 -5.396699 -11.772859 44.097796 32.654233 0.000000 0.000000 0.000000 -59.403593 14.722062 35.548811 53.017827 -42.141324 17.160622 45.049194 71.345580 -35.832281 0.000000 0.000000 0.000000
-15.621759 79.138426 317.879139 9.507544 -4.346436 -20.253441 0.568883 0.187909 20.998234 -0.031155 -0.202858 0.466537 -17.234975 -44.581183 2.888461 0.000000 0.000000 0.000000 -27.006028 -8.023846 -0.760573 1.047518 15.245025 3.492496 18.692051 5.577941 0.823359 -14.047682 4.057869 -0.861182 0.000000 0.000000 0.000000 0.000000 0.000000 0.000000 38.426540 1.220495 6.985694 -29.149096 -11.875776 -54.644518 -100.273068 72.947683 178.343538 -101.665923 10.489321 -85.687053 0.000000 0.000000 0.000000 0.000000 0.000000 0.000000 -9.943617 25.068573 27.611638 -6.303004 -18.390053 -6.741143 -7.722606 43.329103 30.861724 0.000000 0.000000 0.000000 -51.952636 14.055375 33.903649 44.033589 -37.522940 11.662475 51.355890 76.051875 -43.288085 0.000000 0.000000 0.000000
